<svg width="15" height="20" viewBox="0 0 15 20" fill="none" xmlns="http://www.w3.org/2000/svg">
    <path
        d="M13.0964 8.76235C11.9359 9.46803 11.3612 10.4251 11.3687 11.6949C11.3687 11.7601 11.2478 13.8101 13.5 14.8733C13.0797 16.1469 11.6365 18.9752 9.95708 18.9994C8.98627 18.9994 8.41717 18.3812 7.31803 18.3812C6.18541 18.3812 5.56981 18.9789 4.69943 18.9994C3.03491 19.0497 1.4392 15.9383 0.996566 14.6685C0.665522 13.704 0.5 12.7674 0.5 11.8606C0.5 8.79214 2.54764 7.28395 4.47439 7.25416C5.40801 7.25416 6.59456 7.93564 7.11345 7.93564C7.60443 7.93564 8.94535 7.12382 10.171 7.22065C11.4654 7.31933 12.4474 7.83137 13.0964 8.76235Z"
        stroke="currentcolor" />
    <path
        d="M11.0011 1.00838C11.0296 1.38214 11.1068 2.39558 10.171 3.50806C9.49399 4.29939 8.67196 4.76302 7.77182 4.69413C7.69557 3.73894 8.05079 2.89175 8.65522 2.20655C9.20386 1.5679 10.1672 1.04841 11.0004 1L11.0011 1.00838Z"
        stroke="currentcolor" />
</svg>