<svg width="36" height="36" viewBox="0 0 36 36" fill="none" xmlns="http://www.w3.org/2000/svg">
                      <path fill-rule="evenodd" clip-rule="evenodd" d="M12.96 16.5599V20.0159H18.648C18.432 21.5279 16.92 24.3359 12.96 24.3359C9.504 24.3359 6.69601 21.4559 6.69601 17.9999C6.69601 14.5439 9.504 11.6639 12.96 11.6639C14.904 11.6639 16.2 12.5279 16.992 13.2479L19.728 10.5839C17.928 8.92792 15.696 7.91992 12.96 7.91992C7.41601 7.91992 2.88 12.4559 2.88 17.9999C2.88 23.5439 7.41601 28.0799 12.96 28.0799C18.792 28.0799 22.608 23.9759 22.608 18.2159C22.608 17.5679 22.536 17.0639 22.464 16.5599H12.96ZM34.56 16.5599H31.68V13.6799H28.8V16.5599H25.92V19.4399H28.8V22.3199H31.68V19.4399H34.56V16.5599Z" fill="white"/>
                    </svg>