<svg viewBox="0 0 12 13" fill="none" xmlns="http://www.w3.org/2000/svg">
                          <path d="M2.09627 11.6195L2.82735 8.16864L0.268563 5.80414C0.268563 5.80414 -0.096986 5.48462 0.0248693 5.03728C0.146725 4.58994 0.634105 4.58994 0.634105 4.58994L4.04582 4.27041L5.38614 1.01124C5.38614 1.01124 5.5689 0.5 5.99538 0.5C6.42185 0.5 6.60461 1.01124 6.60461 1.01124L7.94493 4.27041L11.4785 4.58994C11.4785 4.58994 11.844 4.65385 11.9659 5.03728C12.0877 5.42071 11.844 5.67633 11.844 5.67633L9.1634 8.16864L9.89448 11.7473C9.89448 11.7473 10.0163 12.1308 9.71171 12.3864C9.40709 12.642 8.91971 12.3864 8.91971 12.3864L5.99538 10.5331L3.13197 12.3864C3.13197 12.3864 2.70551 12.642 2.33996 12.3864C1.97442 12.1308 2.09627 11.6195 2.09627 11.6195Z" fill="#FF8A00"/>
                        </svg>